REM DIRINDEX 1\2\4\8,1\2\4\9,1\2\4\10,1\2\5\11,1\2\5\12,1\2\5\13,1\2\5\14,1\2\5\15,1\3\6\16,1\3\6\17,1\3\6\18,1\3\7\19,1\3\7\20,1\3\7\21,1\3\7\22,1\3\7\23
REM DIRNAME "folder01","folder02","folder03","folder04","folder05","folder06","folder07","folder08","folder09","folder10","folder11","folder12","folder13","folder14","folder15","folder16","folder17","folder18","folder19","folder20","folder21","folder22","folder23"
TITLE ""
FILE "LR_black_phrase_S09.mp3" MP3
  TRACK 01 AUDIO
    TITLE "0:"
    INDEX 01 00:00:00
  TRACK 02 AUDIO
    TITLE "19:cjc171_15801"
    INDEX 01 00:00:14
  TRACK 03 AUDIO
    TITLE "0:"
    INDEX 01 00:01:20
  TRACK 04 AUDIO
    TITLE "20:cjc171_15802"
    INDEX 01 00:01:59
  TRACK 05 AUDIO
    TITLE "0:"
    INDEX 01 00:04:37
  TRACK 06 AUDIO
    TITLE "21:cjc171_15803"
    INDEX 01 00:05:35
  TRACK 07 AUDIO
    TITLE "0:"
    INDEX 01 00:07:34
  TRACK 08 AUDIO
    TITLE "22:cjc171_15804"
    INDEX 01 00:07:73
  TRACK 09 AUDIO
    TITLE "0:"
    INDEX 01 00:09:45
  TRACK 10 AUDIO
    TITLE "23:cjc171_15805"
    INDEX 01 00:09:72
  TRACK 11 AUDIO
    TITLE "0:"
    INDEX 01 00:11:45
  TRACK 12 AUDIO
    TITLE "19:cjc171_15806"
    INDEX 01 00:12:45
  TRACK 13 AUDIO
    TITLE "0:"
    INDEX 01 00:13:68
  TRACK 14 AUDIO
    TITLE "20:cjc171_15807"
    INDEX 01 00:14:32
  TRACK 15 AUDIO
    TITLE "0:"
    INDEX 01 00:16:58
  TRACK 16 AUDIO
    TITLE "21:cjc171_15808"
    INDEX 01 00:17:58
  TRACK 17 AUDIO
    TITLE "0:"
    INDEX 01 00:19:64
  TRACK 18 AUDIO
    TITLE "22:cjc171_15809"
    INDEX 01 00:20:27
  TRACK 19 AUDIO
    TITLE "0:"
    INDEX 01 00:22:69
  TRACK 20 AUDIO
    TITLE "23:cjc171_15810"
    INDEX 01 00:23:21
  TRACK 21 AUDIO
    TITLE "0:"
    INDEX 01 00:25:63
  TRACK 22 AUDIO
    TITLE "19:cjc171_15811"
    INDEX 01 00:26:65
  TRACK 23 AUDIO
    TITLE "0:"
    INDEX 01 00:28:13
  TRACK 24 AUDIO
    TITLE "20:cjc171_15812"
    INDEX 01 00:28:50
  TRACK 25 AUDIO
    TITLE "0:"
    INDEX 01 00:29:47
  TRACK 26 AUDIO
    TITLE "21:cjc171_15813"
    INDEX 01 00:30:45
  TRACK 27 AUDIO
    TITLE "0:"
    INDEX 01 00:32:20
  TRACK 28 AUDIO
    TITLE "22:cjc171_15814"
    INDEX 01 00:32:55
  TRACK 29 AUDIO
    TITLE "0:"
    INDEX 01 00:34:66
  TRACK 30 AUDIO
    TITLE "23:cjc171_15815"
    INDEX 01 00:35:11
  TRACK 31 AUDIO
    TITLE "0:"
    INDEX 01 00:37:21
  TRACK 32 AUDIO
    TITLE "19:cjc171_15816"
    INDEX 01 00:38:15
  TRACK 33 AUDIO
    TITLE "0:"
    INDEX 01 00:39:22
  TRACK 34 AUDIO
    TITLE "20:cjc171_15817"
    INDEX 01 00:39:59
  TRACK 35 AUDIO
    TITLE "0:"
    INDEX 01 00:42:22
  TRACK 36 AUDIO
    TITLE "21:cjc171_15818"
    INDEX 01 00:43:20
  TRACK 37 AUDIO
    TITLE "0:"
    INDEX 01 00:45:34
  TRACK 38 AUDIO
    TITLE "22:cjc171_15819"
    INDEX 01 00:45:68
  TRACK 39 AUDIO
    TITLE "0:"
    INDEX 01 00:48:33
  TRACK 40 AUDIO
    TITLE "23:cjc171_15820"
    INDEX 01 00:48:52
  TRACK 41 AUDIO
    TITLE "0:"
    INDEX 01 00:51:17
  TRACK 42 AUDIO
    TITLE "19:cjc171_15821"
    INDEX 01 00:52:17
  TRACK 43 AUDIO
    TITLE "0:"
    INDEX 01 00:53:42
  TRACK 44 AUDIO
    TITLE "20:cjc171_15822"
    INDEX 01 00:54:04
  TRACK 45 AUDIO
    TITLE "0:"
    INDEX 01 00:56:21
  TRACK 46 AUDIO
    TITLE "21:cjc171_15823"
    INDEX 01 00:57:20
  TRACK 47 AUDIO
    TITLE "0:"
    INDEX 01 00:59:44
  TRACK 48 AUDIO
    TITLE "22:cjc171_15824"
    INDEX 01 01:00:11
  TRACK 49 AUDIO
    TITLE "0:"
    INDEX 01 01:02:68
  TRACK 50 AUDIO
    TITLE "23:cjc171_15825"
    INDEX 01 01:03:23
  TRACK 51 AUDIO
    TITLE "0:"
    INDEX 01 01:06:05
  TRACK 52 AUDIO
    TITLE "19:cjc171_15826"
    INDEX 01 01:07:09
  TRACK 53 AUDIO
    TITLE "0:"
    INDEX 01 01:08:26
  TRACK 54 AUDIO
    TITLE "20:cjc171_15827"
    INDEX 01 01:08:65
  TRACK 55 AUDIO
    TITLE "0:"
    INDEX 01 01:10:21
  TRACK 56 AUDIO
    TITLE "21:cjc171_15828"
    INDEX 01 01:11:20
  TRACK 57 AUDIO
    TITLE "0:"
    INDEX 01 01:13:17
  TRACK 58 AUDIO
    TITLE "22:cjc171_15829"
    INDEX 01 01:13:54
  TRACK 59 AUDIO
    TITLE "0:"
    INDEX 01 01:15:49
  TRACK 60 AUDIO
    TITLE "23:cjc171_15830"
    INDEX 01 01:16:04
  TRACK 61 AUDIO
    TITLE "0:"
    INDEX 01 01:17:74
  TRACK 62 AUDIO
    TITLE "19:cjc171_15831"
    INDEX 01 01:18:75
  TRACK 63 AUDIO
    TITLE "0:"
    INDEX 01 01:20:11
  TRACK 64 AUDIO
    TITLE "20:cjc171_15832"
    INDEX 01 01:20:43
  TRACK 65 AUDIO
    TITLE "0:"
    INDEX 01 01:22:14
  TRACK 66 AUDIO
    TITLE "21:cjc171_15833"
    INDEX 01 01:23:14
  TRACK 67 AUDIO
    TITLE "0:"
    INDEX 01 01:25:20
  TRACK 68 AUDIO
    TITLE "22:cjc171_15834"
    INDEX 01 01:25:58
  TRACK 69 AUDIO
    TITLE "0:"
    INDEX 01 01:27:54
  TRACK 70 AUDIO
    TITLE "23:cjc171_15835"
    INDEX 01 01:27:74
  TRACK 71 AUDIO
    TITLE "0:"
    INDEX 01 01:29:73
  TRACK 72 AUDIO
    TITLE "19:cjc171_15836"
    INDEX 01 01:30:70
  TRACK 73 AUDIO
    TITLE "0:"
    INDEX 01 01:32:07
  TRACK 74 AUDIO
    TITLE "20:cjc171_15837"
    INDEX 01 01:32:44
  TRACK 75 AUDIO
    TITLE "0:"
    INDEX 01 01:33:55
  TRACK 76 AUDIO
    TITLE "21:cjc171_15838"
    INDEX 01 01:34:54
  TRACK 77 AUDIO
    TITLE "0:"
    INDEX 01 01:36:48
  TRACK 78 AUDIO
    TITLE "22:cjc171_15839"
    INDEX 01 01:37:08
  TRACK 79 AUDIO
    TITLE "0:"
    INDEX 01 01:39:24
  TRACK 80 AUDIO
    TITLE "23:cjc171_15840"
    INDEX 01 01:39:44
  TRACK 81 AUDIO
    TITLE "0:"
    INDEX 01 01:41:62
  TRACK 82 AUDIO
    TITLE "19:cjc171_15841"
    INDEX 01 01:42:62
  TRACK 83 AUDIO
    TITLE "0:"
    INDEX 01 01:44:10
  TRACK 84 AUDIO
    TITLE "20:cjc171_15842"
    INDEX 01 01:44:49
  TRACK 85 AUDIO
    TITLE "0:"
    INDEX 01 01:46:58
  TRACK 86 AUDIO
    TITLE "21:cjc171_15843"
    INDEX 01 01:47:57
  TRACK 87 AUDIO
    TITLE "0:"
    INDEX 01 01:50:10
  TRACK 88 AUDIO
    TITLE "22:cjc171_15844"
    INDEX 01 01:50:50
  TRACK 89 AUDIO
    TITLE "0:"
    INDEX 01 01:53:15
  TRACK 90 AUDIO
    TITLE "23:cjc171_15845"
    INDEX 01 01:53:40
  TRACK 91 AUDIO
    TITLE "0:"
    INDEX 01 01:56:05
  TRACK 92 AUDIO
    TITLE "19:cjc171_15846"
    INDEX 01 01:57:05
  TRACK 93 AUDIO
    TITLE "0:"
    INDEX 01 01:58:18
  TRACK 94 AUDIO
    TITLE "20:cjc171_15847"
    INDEX 01 01:58:55
  TRACK 95 AUDIO
    TITLE "0:"
    INDEX 01 02:00:42
  TRACK 96 AUDIO
    TITLE "21:cjc171_15848"
    INDEX 01 02:01:42
  TRACK 97 AUDIO
    TITLE "0:"
    INDEX 01 02:03:33
  TRACK 98 AUDIO
    TITLE "22:cjc171_15849"
    INDEX 01 02:03:72
  TRACK 99 AUDIO
    TITLE "0:"
    INDEX 01 02:05:41
  TRACK 100 AUDIO
    TITLE "23:cjc171_15850"
    INDEX 01 02:05:69
  TRACK 101 AUDIO
    TITLE "0:"
    INDEX 01 02:07:38
  TRACK 102 AUDIO
    TITLE "19:cjc171_15851"
    INDEX 01 02:08:40
  TRACK 103 AUDIO
    TITLE "0:"
    INDEX 01 02:09:65
  TRACK 104 AUDIO
    TITLE "20:cjc171_15852"
    INDEX 01 02:10:27
  TRACK 105 AUDIO
    TITLE "0:"
    INDEX 01 02:11:71
  TRACK 106 AUDIO
    TITLE "21:cjc171_15853"
    INDEX 01 02:12:73
  TRACK 107 AUDIO
    TITLE "0:"
    INDEX 01 02:15:28
  TRACK 108 AUDIO
    TITLE "22:cjc171_15854"
    INDEX 01 02:15:61
  TRACK 109 AUDIO
    TITLE "0:"
    INDEX 01 02:18:24
  TRACK 110 AUDIO
    TITLE "23:cjc171_15855"
    INDEX 01 02:18:48
  TRACK 111 AUDIO
    TITLE "0:"
    INDEX 01 02:21:09
  TRACK 112 AUDIO
    TITLE "19:cjc171_15856"
    INDEX 01 02:22:07
  TRACK 113 AUDIO
    TITLE "0:"
    INDEX 01 02:23:22
  TRACK 114 AUDIO
    TITLE "20:cjc171_15857"
    INDEX 01 02:23:55
  TRACK 115 AUDIO
    TITLE "0:"
    INDEX 01 02:24:72
  TRACK 116 AUDIO
    TITLE "21:cjc171_15858"
    INDEX 01 02:25:69
  TRACK 117 AUDIO
    TITLE "0:"
    INDEX 01 02:27:55
  TRACK 118 AUDIO
    TITLE "22:cjc171_15859"
    INDEX 01 02:28:15
  TRACK 119 AUDIO
    TITLE "0:"
    INDEX 01 02:30:39
  TRACK 120 AUDIO
    TITLE "23:cjc171_15860"
    INDEX 01 02:30:59
  TRACK 121 AUDIO
    TITLE "0:"
    INDEX 01 02:33:10
  TRACK 122 AUDIO
    TITLE "19:cjc171_15861"
    INDEX 01 02:34:10
  TRACK 123 AUDIO
    TITLE "0:"
    INDEX 01 02:35:17
  TRACK 124 AUDIO
    TITLE "20:cjc171_15862"
    INDEX 01 02:35:56
  TRACK 125 AUDIO
    TITLE "0:"
    INDEX 01 02:38:11
  TRACK 126 AUDIO
    TITLE "21:cjc171_15863"
    INDEX 01 02:39:09
  TRACK 127 AUDIO
    TITLE "0:"
    INDEX 01 02:41:04
  TRACK 128 AUDIO
    TITLE "22:cjc171_15864"
    INDEX 01 02:41:43
  TRACK 129 AUDIO
    TITLE "0:"
    INDEX 01 02:43:38
  TRACK 130 AUDIO
    TITLE "23:cjc171_15865"
    INDEX 01 02:43:67
  TRACK 131 AUDIO
    TITLE "0:"
    INDEX 01 02:45:62
  TRACK 132 AUDIO
    TITLE "19:cjc171_15866"
    INDEX 01 02:46:68
  TRACK 133 AUDIO
    TITLE "0:"
    INDEX 01 02:47:73
  TRACK 134 AUDIO
    TITLE "20:cjc171_15867"
    INDEX 01 02:48:39
  TRACK 135 AUDIO
    TITLE "0:"
    INDEX 01 02:51:08
  TRACK 136 AUDIO
    TITLE "21:cjc171_15868"
    INDEX 01 02:52:08
  TRACK 137 AUDIO
    TITLE "0:"
    INDEX 01 02:53:58
  TRACK 138 AUDIO
    TITLE "22:cjc171_15869"
    INDEX 01 02:54:24
  TRACK 139 AUDIO
    TITLE "0:"
    INDEX 01 02:56:03
  TRACK 140 AUDIO
    TITLE "23:cjc171_15870"
    INDEX 01 02:56:37
  TRACK 141 AUDIO
    TITLE "0:"
    INDEX 01 02:58:16
  TRACK 142 AUDIO
    TITLE "19:cjc171_15871"
    INDEX 01 02:59:17
  TRACK 143 AUDIO
    TITLE "0:"
    INDEX 01 03:00:19
  TRACK 144 AUDIO
    TITLE "20:cjc171_15872"
    INDEX 01 03:00:58
  TRACK 145 AUDIO
    TITLE "0:"
    INDEX 01 03:01:63
  TRACK 146 AUDIO
    TITLE "21:cjc171_15873"
    INDEX 01 03:02:57
  TRACK 147 AUDIO
    TITLE "0:"
    INDEX 01 03:04:68
  TRACK 148 AUDIO
    TITLE "22:cjc171_15874"
    INDEX 01 03:05:28
  TRACK 149 AUDIO
    TITLE "0:"
    INDEX 01 03:08:12
  TRACK 150 AUDIO
    TITLE "23:cjc171_15875"
    INDEX 01 03:08:32
  TRACK 151 AUDIO
    TITLE "0:"
    INDEX 01 03:11:17
  TRACK 152 AUDIO
    TITLE "19:cjc171_15876"
    INDEX 01 03:12:12
  TRACK 153 AUDIO
    TITLE "0:"
    INDEX 01 03:13:33
  TRACK 154 AUDIO
    TITLE "20:cjc171_15877"
    INDEX 01 03:13:70
  TRACK 155 AUDIO
    TITLE "0:"
    INDEX 01 03:15:15
  TRACK 156 AUDIO
    TITLE "21:cjc171_15878"
    INDEX 01 03:16:12
  TRACK 157 AUDIO
    TITLE "0:"
    INDEX 01 03:18:19
  TRACK 158 AUDIO
    TITLE "22:cjc171_15879"
    INDEX 01 03:18:52
  TRACK 159 AUDIO
    TITLE "0:"
    INDEX 01 03:20:43
  TRACK 160 AUDIO
    TITLE "23:cjc171_15880"
    INDEX 01 03:20:67
  TRACK 161 AUDIO
    TITLE "0:"
    INDEX 01 03:22:58
  TRACK 162 AUDIO
    TITLE "19:cjc171_15881"
    INDEX 01 03:23:57
  TRACK 163 AUDIO
    TITLE "0:"
    INDEX 01 03:25:09
  TRACK 164 AUDIO
    TITLE "20:cjc171_15882"
    INDEX 01 03:25:50
  TRACK 165 AUDIO
    TITLE "0:"
    INDEX 01 03:29:19
  TRACK 166 AUDIO
    TITLE "21:cjc171_15883"
    INDEX 01 03:30:16
  TRACK 167 AUDIO
    TITLE "0:"
    INDEX 01 03:31:74
  TRACK 168 AUDIO
    TITLE "22:cjc171_15884"
    INDEX 01 03:32:40
  TRACK 169 AUDIO
    TITLE "0:"
    INDEX 01 03:34:31
  TRACK 170 AUDIO
    TITLE "23:cjc171_15885"
    INDEX 01 03:34:63
  TRACK 171 AUDIO
    TITLE "0:"
    INDEX 01 03:36:54
  TRACK 172 AUDIO
    TITLE "19:cjc171_15886"
    INDEX 01 03:37:59
  TRACK 173 AUDIO
    TITLE "0:"
    INDEX 01 03:39:05
  TRACK 174 AUDIO
    TITLE "20:cjc171_15887"
    INDEX 01 03:39:44
  TRACK 175 AUDIO
    TITLE "0:"
    INDEX 01 03:43:34
  TRACK 176 AUDIO
    TITLE "21:cjc171_15888"
    INDEX 01 03:44:32
  TRACK 177 AUDIO
    TITLE "0:"
    INDEX 01 03:46:60
  TRACK 178 AUDIO
    TITLE "22:cjc171_15889"
    INDEX 01 03:47:24
  TRACK 179 AUDIO
    TITLE "0:"
    INDEX 01 03:49:64
  TRACK 180 AUDIO
    TITLE "23:cjc171_15890"
    INDEX 01 03:50:19
  TRACK 181 AUDIO
    TITLE "0:"
    INDEX 01 03:52:59
  TRACK 182 AUDIO
    TITLE "19:cjc171_15891"
    INDEX 01 03:53:58
  TRACK 183 AUDIO
    TITLE "0:"
    INDEX 01 03:54:73
  TRACK 184 AUDIO
    TITLE "20:cjc171_15892"
    INDEX 01 03:55:34
  TRACK 185 AUDIO
    TITLE "0:"
    INDEX 01 03:57:19
  TRACK 186 AUDIO
    TITLE "21:cjc171_15893"
    INDEX 01 03:58:16
  TRACK 187 AUDIO
    TITLE "0:"
    INDEX 01 04:00:13
  TRACK 188 AUDIO
    TITLE "22:cjc171_15894"
    INDEX 01 04:00:48
  TRACK 189 AUDIO
    TITLE "0:"
    INDEX 01 04:02:14
  TRACK 190 AUDIO
    TITLE "23:cjc171_15895"
    INDEX 01 04:02:40
  TRACK 191 AUDIO
    TITLE "0:"
    INDEX 01 04:04:07
  TRACK 192 AUDIO
    TITLE "19:cjc171_15896"
    INDEX 01 04:05:12
  TRACK 193 AUDIO
    TITLE "0:"
    INDEX 01 04:06:37
  TRACK 194 AUDIO
    TITLE "20:cjc171_15897"
    INDEX 01 04:06:71
  TRACK 195 AUDIO
    TITLE "0:"
    INDEX 01 04:09:26
  TRACK 196 AUDIO
    TITLE "21:cjc171_15898"
    INDEX 01 04:10:27
  TRACK 197 AUDIO
    TITLE "0:"
    INDEX 01 04:12:03
  TRACK 198 AUDIO
    TITLE "22:cjc171_15899"
    INDEX 01 04:12:38
  TRACK 199 AUDIO
    TITLE "0:"
    INDEX 01 04:14:31
  TRACK 200 AUDIO
    TITLE "23:cjc171_15900"
    INDEX 01 04:14:51
  TRACK 201 AUDIO
    TITLE "0:"
    INDEX 01 04:16:42
